{
.appVersion = "3151";
.formatVersion = 3;
DisplayStrings = (
M,
S,
K,
"/K.001",
T,
"HHOHHOOHOO HHAHHOOAOO
HHBHHOOBOO HHCHHOOCOO
HHDHHOODOO HHEHHOOEOO
HHFHHOOFOO HHGHHOOGOO
HHIHHOOIOO HHJHHOOJOO
HHKHHOOKOO HHLHHOOLOO
HHMHHOOMOO HHNHHOONOO
HHPHHOOPOO HHQHHOOQOO
HHRHHOOROO HHSHHOOSOO
HHTHHOOTOO HHUHHOOUOO
HHVHHOOVOO HHWHHOOWOO
HHXHHOOXOO HHYHHOOYOO
HHZHHOOZOO",
QUESTION,
"QUESTION ",
"11",
"/K.002",
"/T_H_E",
MAGIC,
"/T_H_E.001",
"/C.001",
"/C.002",
C,
G,
E,
"/E.001 C",
NM,
"1",
A,
"/A.fina"
);
axes = (
{
name = curvature;
tag = curv;
}
);
classes = (
{
automatic = 1;
code = "A B C D E F G H I J K L M N O P Q R S T U V W X Y Z B.001 B.002 C.001 C.002 D.001 D.002 E.001 H.001 H.002 H.003 I.001 I.002 I.003 I.004 K.001 K.002 N.001 N.002 N.004 O.001 O.002 P.001 Q.002 U.001 U.002 U.003 U.004 V.001 W.001 Y.001 A.fina T_H_E T_H_E.001";
name = AllLetters;
},
{
code = "A B C D E F G H I J K L M N O P Q R S T U V W X Y Z";
name = Medial;
},
{
code = "";
name = Initial;
},
{
code = A.fina;
name = Final;
}
);
date = "2023-07-05 21:16:45 +0000";
familyName = "Chiaroscuro Slant";
featurePrefixes = (
{
automatic = 1;
code = "languagesystem DFLT dflt;
";
name = Languagesystems;
}
);
features = (
{
automatic = 1;
code = "feature ss01;
feature calt;
feature fina;
";
tag = aalt;
},
{
code = "sub C by C.002;
sub K by K.002;
sub E by E.001;";
labels = (
{
language = dflt;
value = "";
}
);
tag = ss01;
},
{
automatic = 1;
code = "lookupflag IgnoreMarks;
sub T H E by T_H_E;
sub T H.001 E.001 by T_H_E.001;
";
tag = dlig;
},
{
code = "sub T H E by T_H_E;";
tag = liga;
},
{
code = "lookup INITIAL {
   ignore sub @AllLetters @Medial';
#   sub @Medial' by @Initial;
} INITIAL;

lookup FINAL {
   ignore sub @Medial' @AllLetters;
   sub @Medial' by @Final;
} FINAL;
";
tag = calt;
},
{
automatic = 1;
code = "sub A by A.fina;
";
tag = fina;
}
);
fontMaster = (
{
axesValues = (
0
);
customParameters = (
{
name = hheaAscender;
value = 900;
},
{
name = hheaDescender;
value = 0;
},
{
name = typoAscender;

glyphs = (
{
glyphname = B;
lastChange = "2023-07-24 07:40:05 +0000";
layers = (
{
layerId = m01;
shapes = (
{
closed = 1;
nodes = (
(225,567.5,l),
(574,414,o),
(582,412,o),
(600,354,cs),
(611.5,315.5,o),
(530.5,59,o),
(511,0,c),
(515,0,l),
(650,400,l),
(226.5,572,l)
);
},
{
closed = 1;
nodes = (
(200,895,l),
(425,893,ls),
(525,892,o),
(547.5,861,o),
(576,751,cs),
(586.5,710,o),
(595,674.5,o),
(602.5,645,cs),
(637.5,504,o),
(642.5,504,o),
(487.5,504,c),
(487.5,500,l),
(650,500,l),
(550,900,l),
(200,900,l)
);
},
{
closed = 1;
nodes = (
(450,0,l),
(450,5,l),
(25,5,o),
(7.5,4.5,o),
(65,174,cs),
(304.5,877.5,l),
(298.5,877.5,l),
(48,175.5,ls),
(-2.5,34.5,o),
(-50,5,o),
(-100,5,c),
(-100,0,l)
);
}
);
width = 650;
}
);
unicode = (66,98);
},
{
glyphname = C;
lastChange = "2023-07-24 11:17:48 +0000";
layers = (
{
layerId = m01;
shapes = (
{
closed = 1;
nodes = (
(360,897,l),
(550.5,891,o),
(552.5,870,o),
(565,748.5,cs),
(571.5,684.5,o),
(570,650,o),
(570,600,c),
(575,600,l),
(575,900,l),
(360,900,l)
);
},
{
closed = 1;
nodes = (
(250,0,l),
(250,5,l),
(110,5,o),
(67,32,o),
(115,174,cs),
(361.5,900,l),
(355.5,900,l),
(98,175.5,ls),
(48,34.5,o),
(0,5,o),
(-50,5,c),
(-50,0,l)
);
},
{
closed = 1;
nodes = (
(514,275,l),
(471,156,ls),
(421,18,o),
(416,5,o),
(262.5,5,cs),
(252.5,5,o),
(185,5,o),
(185,5,c),
(185,0,l),
(430,0,l),
(519,275,l)
);
}
);
width = 575;
}
);
unicode = (67,99);
},
{
glyphname = D;
lastChange = "2023-07-24 07:45:34 +0000";
layers = (
{
layerId = m01;
shapes = (
{
closed = 1;
nodes = (
(642,531.5,l),
(650,531.5,l),
(650,750,l),
(500,900,l),
(200,900,l),
(200,895,l),
(400,887.5,ls),
(525,884.5,o),
(632,720,o),
(642,670,c)
);
},
{
closed = 1;
nodes = (
(199.5,0,l),
(312,0,l),
(650,375,l),
(650,531.5,l),
(642,531.5,l),
(642,450.5,l),
(626,381,o),
(590,337.5,o),
(454,189,cs),
(400,130,o),
(257.5,5,o),
(110,5,c),
(110,0,l)
);
},
{
piece = {
bottomStress = 0;
};
ref = _part.stemNeue.001;
}
);
width = 650;
}
);
unicode = (68,100);
},
{
glyphname = E;
lastChange = "2023-07-24 07:55:44 +0000";
layers = (
{
layerId = m01;
shapes = (
{
closed = 1;
nodes = (
(150,897,l),
(354.5,891.5,ls),
(466.5,888.5,o),
(500,868,o),
(534.5,826.5,cs),
(570.5,783,o),
(572,678.5,o),
(572,650,c),
(575,650,l),
(575,900,l),
(150,900,l)
);
},
{
closed = 1;
nodes = (
(215,618.5,l),
(338,618.5,o),
(352.5,614,o),
(379,568,cs),
(392,545.5,o),
(394.5,519.5,o),
(397,482,c),
(400,482,l),
(400,625,l),
(215,625,l)
);
},
{
closed = 1;
nodes = (
(439,275,l),
(396,156,ls),
(346,18,o),
(341,5,o),
(187.5,5,cs),
(177.5,5,o),
(110,5,o),
(110,5,c),
(110,0,l),
(355,0,l),
(444,275,l)
);
},
{
ref = _part.stemNeue.001;
}
);
width = 550;
}
);
unicode = (69,101);
},
{
glyphname = F;
lastChange = "2023-07-24 08:05:19 +0000";
layers = (
{
layerId = m01;
shapes = (
{
closed = 1;
nodes = (
(150,897,l),
(429.5,891.5,ls),
(541.5,888.5,o),
(575,868,o),
(609.5,826.5,cs),
(645.5,783,o),
(647,678.5,o),
(647,650,c),
(650,650,l),
(650,900,l),
(150,900,l)
);
},
{
closed = 1;
nodes = (
(215,618.5,l),
(388,618.5,o),
(427.5,614,o),
(454,568,cs),
(467,545.5,o),
(469.5,519.5,o),
(472,482,c),
(475,482,l),
(475,625,l),
(215,625,l)
);
},
{
ref = _part.stemNeue.001;
}
);
width = 620;
}
);
unicode = (70,102);
},
{
glyphname = G;
lastChange = "2023-07-24 11:18:20 +0000";
layers = (
{
layerId = m01;
shapes = (
{
closed = 1;
nodes = (
(310,897,l),
(500.5,891,o),
(502.5,870,o),
(515,748.5,cs),
(521.5,684.5,o),
(520,650,o),
(520,600,c),
(525,600,l),
(525,900,l),
(310,900,l)
);
},
{
closed = 1;
nodes = (
(175.5,179.5,l),
(300.5,249.5,o),
(451,373,o),
(490,340,cs),
(519.5,315,o),
(521,201,o),
(521,76,c),
(525,76,l),
(525,414.5,l),
(175.5,182.5,l)
);
},
{
closed = 1;
nodes = (
(200,0,l),
(200,5,l),
(60,5,o),
(17,32,o),
(65,174,cs),
(311.5,900,l),
(305.5,900,l),
(48,175.5,ls),
(-2,34.5,o),
(-50,5,o),
(-100,5,c),
(-100,0,l)
);
}
);
width = 525;
}
);
unicode = (71,103);
},
{
glyphname = H;
lastChange = "2023-07-24 05:32:27 +0000";
layers = (
{
layerId = m01;
shapes = (
{
closed = 1;
nodes = (
(550,75,l),
(542.5,75,l),
(536,827,l),
(535.5,887,o),
(502.5,897,o),
(452.5,897,c),
(452.5,900,l),
(536,900,l),
(550,900,l)
);
},
{
closed = 1;
nodes = (
(48,175.5,ls),
(-2.5,33.5,o),
(-50,5,o),
(-100,5,c),
(-100,0,l),
(110,0,l),
(110,5,l),
(60,5,o),
(17,32,o),
(65,174,cs),
(311.5,900,l),
(137.5,900,l),
(137.5,895,l),
(212.5,893,ls),
(287.5,891,o),
(259.5,770,o),
(237,706.5,cs)
);
},
{
closed = 1;
nodes = (
(538,525,l),
(538,612.5,o),
(526.5,620,o),
(242.5,620,c),
(245,625,l),
(538.5,625,l)
);
}
);
width = 600;
}
);
unicode = (72,104);
},
{
glyphname = I;
lastChange = "2023-07-24 05:30:25 +0000";
layers = (
{
layerId = m01;
shapes = (
{
closed = 1;
nodes = (
(98,175.5,ls),
(47.5,33,o),
(-5.5,5,o),
(-100,5,c),
(-100,0,l),
(175,0,l),
(175,5,l),
(100,5,o),
(67,32,o),
(115,174,cs),
(336,824.5,ls),
(351.5,869.5,o),
(374,895,o),
(475,895,cs),
(480,895,l),
(480,900,l),
(262.5,900,l),
(262.5,895,l),
(275,894,ls),
(357,887.5,o),
(332,832,o),
(312.5,777.5,cs)
);
}
);
width = 330;
}
);
unicode = (73,105);
},
{
glyphname = J;
lastChange = "2023-07-24 10:04:54 +0000";
layers = (
{
layerId = m01;
shapes = (
{
closed = 1;
nodes = (
(125,5,l),
(175,5,o),
(216,16.5,o),
(261,141.5,c),
(210,0,l),
(-100,0,l),
(-175,200,l),
(-171.5,202.5,l),
(-94,23.5,o),
(-78,5,o),
(75,5,c)
);
},
{
closed = 1;
nodes = (
(232.5,0,l),
(537.5,900,l),
(205,900,l),
(205,895,l),
(300,895,l),
(500,895,o),
(522.5,867.5,o),
(435,625,cs),
(210,0,l)
);
}
);
width = 475;
}
);
unicode = (74,106);
},
{
glyphname = K;
lastChange = "2023-07-24 04:11:50 +0000";
layers = (
{
layerId = m01;
shapes = (
{
closed = 1;
nodes = (
(250,550,l),
(421,550,ls),
(571.5,550,o),
(579.5,472,o),
(584.5,412,cs),
(594.5,292,o),
(595,245,o),
(595,145,c),
(600,145,l),
(600,555,l),
(250,555,l)
);
},
{
closed = 1;
nodes = (
(262.5,555,l),
(300,611.5,o),
(482,803.5,o),
(600,900,c),
(525,900,l),
(250,555,l)
);
},
{
piece = {
length = 110;
};
ref = _part.stemNeue.002;
}
);
width = 600;
}
);
unicode = (75,107);
},
{
glyphname = L;
lastChange = "2023-07-24 07:46:31 +0000";
layers = (
{
layerId = m01;
shapes = (
{
closed = 1;
nodes = (
(323,5,o),
(365.5,22.5,o),
(512.5,300,c),
(516,297.5,l),
(365.5,0,l),
(110,0,l),
(110,5,l),
(190.5,5,l)
);
},
{
closed = 1;
nodes = (
(48,175.5,ls),
(-2.5,33,o),
(-50,5,o),
(-100,5,c),
(-100,0,l),
(110,0,l),
(110,5,l),
(60,5,o),
(17,32,o),
(65,174,cs),
(311.5,900,l),
(145,900,l),
(145,895,l),
(150,895,ls),
(300,895,o),
(282,832,o),
(262.5,777.5,cs)
);
}
);
width = 515.5;
}
);
unicode = (76,108);
},
{
glyphname = M;
lastChange = "2023-07-24 11:28:57 +0000";
layers = (
{
layerId = m01;
shapes = (
{
closed = 1;
nodes = (
(225,900,l),
(225,895,l),
(375,895,o),
(383,810,o),
(385,750,cs),
(389,630,o),
(390,175,o),
(390,25,c),
(400,25,l),
(634,775,l),
(631.5,775,l),
(500,412.5,ls),
(484,368,o),
(400,102,o),
(400,240,c),
(400,900,l)
);
},
{
closed = 1;
nodes = (
(552,900,l),
(552,895,l),
(710,895,o),
(708,810,o),
(710,750,cs),
(714,630,o),
(720,375,o),
(720,225,c),
(725,225,l),
(725,900,l)
);
},
{
piece = {
length = 90;
};
pos = (25,0);
ref = _part.stemNeue.001;
}
);
width = 725;
}
);
unicode = (77,109);
},
{
glyphname = N;
lastChange = "2023-07-24 11:28:05 +0000";
layers = (
{
layerId = m01;
shapes = (
{
closed = 1;
nodes = (
(144.5,900,l),
(144.5,895,l),
(306.5,895,o),
(325,843.5,o),
(362.5,791.5,cs),
(403.5,734.5,o),
(543.5,489,o),
(580,387.5,cs),
(613,296.5,o),
(620,263,o),
(620,74,c),
(625,74,l),
(625,400,l),
(320,900,l)
);
},
{
closed = 1;
nodes = (
(450,900,l),
(450,895,l),
(612,895,o),
(606,855,o),
(610,825,cs),
(618,765,o),
(620,526,o),
(620,475,c),
(625,475,l),
(625,900,l)
);
},
{
piece = {
length = 87.5;
};
ref = _part.stemNeue.001;
}
);
width = 625;
}
);
unicode = (78,110);
},
{
glyphname = O;
lastChange = "2023-07-24 07:54:41 +0000";
layers = (
{
layerId = m01;
shapes = (
{
closed = 1;
nodes = (
(110,0,l),
(237,0,l),
(600,349.5,l),
(600,531.5,l),
(595,531.5,l),
(595,383.5,o),
(547.5,326.5,o),
(392,175.5,cs),
(335,120.5,o),
(244.5,5,o),
(147,5,c),
(110,5,l)
);
},
{
piece = {
length = 110;
};
ref = _part.stemNeue.001;
},
{
closed = 1;
nodes = (
(600.5,900.5,l),
(600,531.5,l),
(595,531.5,l),
(595,700,ls),
(595,823.5,o),
(564,895,o),
(462.5,895,cs),
(374,895,ls),
(324,895,o),
(297,857.5,o),
(273.5,788,c),
(311.5,900,l)
);
}
);
width = 600;
}
);
unicode = (79,111);
},
{
glyphname = Q;
lastChange = "2023-07-24 10:23:55 +0000";
layers = (
{
layerId = m01;
shapes = (
{
closed = 1;
nodes = (
(275,389.5,l),
(395,139.5,o),
(425.5,20.5,o),
(360,10.5,cs),
(336.5,7,o),
(300,5,o),
(275,5,c),
(275,0,l),
(480.5,0,l),
(280,389.5,l)
);
},
{
piece = {
length = 110;
};
ref = _part.stemNeue.001;
},
{
closed = 1;
nodes = (
(600.5,900.5,l),
(600,300,l),
(595,300,l),
(595,700,ls),
(595,823.5,o),
(564,895,o),
(462.5,895,cs),
(374,895,ls),
(324,895,o),
(297,857.5,o),
(273.5,788,c),
(311.5,900,l)
);
}
);
width = 638;
}
);
unicode = (81,113);
},
{
glyphname = R;
lastChange = "2023-07-24 07:39:02 +0000";
layers = (
{
layerId = m01;
shapes = (
{
piece = {
Diagonal = 0;
Rotate = 0;
};
ref = _part.stroke;
},
{
closed = 1;
nodes = (
(150,894,l),
(400,892,ls),
(550,891,o),
(579.5,809.5,o),
(579.5,750,cs),
(579.5,726,o),
(580,704,o),
(580.5,684,c),
(586,534,o),
(535.5,505,o),
(485.5,505,c),
(485.5,500,l),
(585.5,500,l),
(600,500,l),
(600,900,l),
(150,900,l)
);
},
{
ref = _part.stemNeue.001;
}
);
width = 600;
}
);
unicode = (82,114);
},
{
glyphname = S;
lastChange = "2023-07-24 07:48:20 +0000";
layers = (
{
layerId = m01;
shapes = (
{
piece = {
staffLength = 0;
staffWidth = 0;
};
pos = (-49.5,0);
ref = _part.staff;
scale = (0.8325,1);
},
{
closed = 1;
nodes = (
(450,100,l),
(449.5,451,l),
(157.5,755,l),
(160,762.5,o),
(194,869.5,o),
(209,900,c),
(200,900,l),
(147.5,755,l),
(429.5,472.5,o),
(442.5,300,o),
(442.5,100,c)
);
},
{
closed = 1;
nodes = (
(185,0,l),
(185,5,l),
(60,5,o),
(17,31.5,o),
(65,174,cs),
(208.5,600,l),
(202.5,600,l),
(48,175.5,ls),
(-3,35,o),
(-50,5,o),
(-100,5,c),
(-100,0,l)
);
}
);
width = 450;
}
);
unicode = (83,115);
},
{
glyphname = T;
lastChange = "2023-07-24 09:58:01 +0000";
layers = (
{
layerId = m01;
shapes = (
{
closed = 1;
nodes = (
(25,895,l),
(255,892.5,ls),
(367,891.5,o),
(400,868,o),
(434.5,826.5,cs),
(470.5,783,o),
(470,678.5,o),
(470,650,c),
(475,650,l),
(475,900,l),
(25,900,l)
);
},
{
ref = _part.stemNeue.001;
}
);
width = 450;
}
);
unicode = (84,116);
},
{
glyphname = U;
lastChange = "2023-07-24 04:20:12 +0000";
layers = (
{
layerId = m01;
shapes = (
{
closed = 1;
nodes = (
(617.5,531.5,l),
(625,531.5,l),
(625,900,l),
(475,900,l),
(475,895,l),
(525,893,ls),
(596.5,890,o),
(617.5,817,o),
(620,759.5,c)
);
},
{
closed = 1;
nodes = (
(149.5,0,l),
(262,0,l),
(625,349.5,l),
(625,531.5,l),
(617.5,531.5,l),
(617.5,456.5,o),
(606.5,339,o),
(462.5,202.5,cs),
(272.5,23,o),
(237.5,25,o),
(150,25,c),
(110,25,l),
(110,0,l)
);
},
{
closed = 1;
nodes = (
(48,175.5,ls),
(-2.5,33,o),
(-50,5,o),
(-100,5,c),
(-100,0,l),
(110,0,l),
(110,25,l),
(60,25,o),
(17,32,o),
(65,174,cs),
(311.5,900,l),
(200,900,l),
(200,895,l),
(237.5,893,ls),
(287.5,890.5,o),
(285,841,o),
(262.5,777.5,cs)
);
}
);
width = 625;
}
);
unicode = (85,117);
},
{
glyphname = V;
lastChange = "2023-07-24 10:02:36 +0000";
layers = (
{
layerId = m01;
shapes = (
{
closed = 1;
nodes = (
(129.5,0,l),
(850,900,l),
(847.5,900,l),
(732.5,900,l),
(732.5,895,l),
(782.5,895,o),
(790.5,842.5,o),
(646.5,664.5,cs),
(125,20,l),
(61,50,o),
(45,115,o),
(102,286.5,c),
(3.5,0,l)
);
},
{
closed = 1;
nodes = (
(48,175.5,ls),
(-3,32,o),
(-50,5,o),
(-100,5,c),
(-100,0,l),
(110,0,l),
(110,5,l),
(60,5,o),
(17,32,o),
(65,174,cs),
(311.5,900,l),
(195,900,l),
(195,895,l),
(200,895,ls),
(293.5,895,o),
(281,830,o),
(198,597,cs)
);
}
);
width = 650;
}
);
unicode = (86,118);
},
{
glyphname = W;
lastChange = "2023-07-24 10:01:54 +0000";
layers = (
{
hints = (
{
name = _corner.rightSerif;
options = 1;
origin = (0,2);
type = Corner;
}
);
layerId = m01;
shapes = (
{
closed = 1;
nodes = (
(129.5,0,l),
(675,900,l),
(665,900,l),
(125,25,l),
(76.5,25,o),
(20,49,o),
(83,227,c),
(-12.5,0,l)
);
},
{
closed = 1;
nodes = (
(479.5,0,l),
(1050,900,l),
(812.5,900,l),
(812.5,895,l),
(1000,895,o),
(1018,873.5,o),
(940,745.5,c),
(475,25,l),
(396,25,o),
(357.5,20,o),
(357.5,184.5,cs),
(357.5,262.5,l),
(350,262.5,l),
(350,0,l)
);
},
{
closed = 1;
nodes = (
(48,175.5,ls),
(-3,32,o),
(-50,5,o),
(-100,5,c),
(-100,0,l),
(110,0,l),
(110,5,l),
(60,5,o),
(17,32,o),
(65,174,cs),
(311.5,900,l),
(157.5,900,l),
(157.5,895,l),
(200,895,ls),
(255,895,o),
(295.5,871,o),
(198,597,cs)
);
}
);
width = 850;
}
);
unicode = (87,119);
},
{
glyphname = X;
lastChange = "2023-07-24 09:13:20 +0000";
layers = (
{
hints = (
{
name = _corner.leftSerif;
origin = (0,12);
type = Corner;
},
{
name = _corner.rightSerif;
options = 1;
origin = (0,13);
type = Corner;
}
);
layerId = m01;
shapes = (
{
closed = 1;
nodes = (
(596,750,l),
(596,900,l),
(450,900,l),
(450,895,l),
(500.5,893,ls),
(548,891,o),
(589.5,887.5,o),
(588.5,829.5,cs),
(588,791,ls),
(587.5,750,o),
(468,621.5,o),
(401,542.5,cs),
(-59,0,l),
(-39,0,l)
);
},
{
closed = 1;
nodes = (
(395,592,l),
(294.5,900,l),
(144.5,900,l),
(144.5,895,l),
(212,891.5,ls),
(272.5,888.5,o),
(310,810.5,o),
(331.5,750,c),
(389.5,586.5,l)
);
},
{
closed = 1;
nodes = (
(417,502.5,l),
(577,30,l),
(584.5,30,l),
(424,511.5,l)
);
}
);
width = 646;
}
);
unicode = (88,120);
},
{
glyphname = Y;
lastChange = "2023-07-24 10:00:54 +0000";
layers = (
{
layerId = m01;
shapes = (
{
closed = 1;
nodes = (
(243.5,0,l),
(243.5,5,l),
(193.5,5,o),
(158.5,10.5,o),
(233,73.5,c),
(531.5,345.5,l),
(527.5,345.5,l),
(138,15.5,o),
(149.5,-3,o),
(-75,5,c),
(-75,0,l)
);
},
{
closed = 1;
nodes = (
(225,210,l),
(537.5,390,l),
(537.5,900,l),
(412.5,900,l),
(412.5,895,l),
(437.5,893,ls),
(512.5,887,o),
(531,880,o),
(530,780,cs),
(527.5,458,ls),
(527,423.5,o),
(499.5,391,o),
(470,372.5,cs),
(206,210,l)
);
},
{
closed = 1;
nodes = (
(222.5,210,l),
(230,218.5,l),
(105,218.5,o),
(102,274,o),
(167,464,cs),
(316,900,l),
(197.5,900,l),
(197.5,895,l),
(219,893,ls),
(287.5,886.5,o),
(303,877,o),
(257.5,750,cs),
(65,210,l)
);
}
);
width = 537.5;
}
);
unicode = (89,121);
},
{
glyphname = Z;
lastChange = "2023-07-24 08:55:22 +0000";
layers = (
{
hints = (
{
name = _corner.leftSerif;
origin = (0,7);
type = Corner;
}
);
layerId = m01;
shapes = (
{
closed = 1;
nodes = (
(385,0,l),
(385,5,l),
(235,5,o),
(35,11.5,o),
(75,92.5,c),
(425,600,l),
(419,600,l),
(-7.5,0,l)
);
},
{
closed = 1;
nodes = (
(475,680,l),
(637.5,900,l),
(167.5,900,l),
(95,700,l),
(100,700,l),
(125,756.5,ls),
(173.5,866.5,o),
(193,895,o),
(275,895,cs),
(430,895,ls),
(483.5,895,o),
(548.5,885.5,o),
(562.5,865,cs),
(584.5,831.5,o),
(538.5,787.5,o),
(470,680,c)
);
}
);
width = 625;
}
);
unicode = (90,122);
},
{
glyphname = B.001;
layers = (
{
layerId = m01;
shapes = (
{
closed = 1;
nodes = (
(225,567.5,l),
(574,414,o),
(582,412,o),
(600,354,cs),
(611.5,315.5,o),
(530.5,59,o),
(511,0,c),
(515,0,l),
(650,400,l),
(226.5,572,l)
);
},
{
closed = 1;
nodes = (
(200,895,l),
(425,893,ls),
(525,892,o),
(552.5,861,o),
(581,751,cs),
(591.5,710,o),
(601.5,675,o),
(607.5,645,cs),
(635,513,o),
(609.5,504,o),
(487.5,504,c),
(487.5,500,l),
(650,500,l),
(550,900,l),
(200,900,l)
);
},
{
closed = 1;
nodes = (
(450,0,l),
(450,5,l),
(25,5,o),
(7.5,4.5,o),
(65,174,cs),
(304.5,877.5,l),
(298.5,877.5,l),
(48,175.5,ls),
(-2.5,34.5,o),
(-50,5,o),
(-100,5,c),
(-100,0,l)
);
}
);
width = 650;
}
);
},
{
glyphname = B.002;
layers = (
{
layerId = m01;
shapes = (
{
closed = 1;
nodes = (
(225,567.5,l),
(574,414,o),
(582,412,o),
(600,354,cs),
(611.5,315.5,o),
(530.5,59,o),
(511,0,c),
(515,0,l),
(650,400,l),
(226.5,572,l)
);
},
{
closed = 1;
nodes = (
(200,895,l),
(425,893,ls),
(525,892,o),
(545,861,o),
(573.5,751,cs),
(584,710,o),
(592.5,674.5,o),
(600,645,cs),
(635,504,o),
(642.5,504,o),
(487.5,504,c),
(487.5,500,l),
(650,500,l),
(550,900,l),
(200,900,l)
);
},
{
closed = 1;
nodes = (
(450,0,l),
(450,5,l),
(25,5,o),
(7.5,4.5,o),
(65,174,cs),
(304.5,877.5,l),
(298.5,877.5,l),
(48,175.5,ls),
(-2.5,34.5,o),
(-50,5,o),
(-100,5,c),
(-100,0,l)
);
}
);
width = 650;
}
);
},
{
glyphname = C.001;
lastChange = "2023-07-24 11:15:26 +0000";
layers = (
{
layerId = m01;
shapes = (
{
closed = 1;
nodes = (
(352.5,897,l),
(543,891,o),
(552.5,870,o),
(565,748.5,cs),
(571.5,684.5,o),
(570,650,o),
(570,600,c),
(575,600,l),
(575,900,l),
(352.5,900,l)
);
},
{
closed = 1;
nodes = (
(250,0,l),
(250,5,l),
(110,5,o),
(66.5,32,o),
(115,174,cs),
(354.5,877.5,l),
(348.5,877.5,l),
(98,175.5,ls),
(47.5,34.5,o),
(0,5,o),
(-50,5,c),
(-50,0,l)
);
},
{
closed = 1;
nodes = (
(570,275,l),
(549,156,ls),
(531.5,57.5,o),
(547.5,5,o),
(262.5,5,cs),
(252.5,5,o),
(185,5,o),
(185,5,c),
(185,0,l),
(535,0,l),
(575,275,l)
);
}
);
width = 575;
}
);
},
{
glyphname = C.002;
lastChange = "2023-07-24 11:30:11 +0000";
layers = (
{
layerId = m01;
shapes = (
{
closed = 1;
nodes = (
(360,897,l),
(550.5,891,o),
(552.5,870,o),
(565,748.5,cs),
(571.5,684.5,o),
(570,650,o),
(570,600,c),
(575,600,l),
(575,900,l),
(360,900,l)
);
},
{
closed = 1;
nodes = (
(250,0,l),
(250,5,l),
(110,5,o),
(67,32,o),
(115,174,cs),
(361.5,900,l),
(355.5,900,l),
(98,175.5,ls),
(48,34.5,o),
(0,5,o),
(-50,5,c),
(-50,0,l)
);
},
{
closed = 1;
nodes = (
(577.5,349,l),
(510.5,156,ls),
(462.5,18.5,o),
(455.5,5,o),
(270,5,cs),
(260,5,o),
(185,5,o),
(185,5,c),
(185,0,l),
(469.5,0,l),
(582.5,349,l)
);
}
);
width = 575;
}
);
},
{
glyphname = D.001;
layers = (
{
hints = (
{
name = _corner.leftSerif;
origin = (2,8);
type = Corner;
}
);
layerId = m01;
shapes = (
{
closed = 1;
nodes = (
(587.5,531.5,l),
(600,531.5,l),
(600,712.5,l),
(400,900,l),
(114,900,l),
(115,890,l),
(300,890,ls),
(490.5,890,o),
(587.5,645,o),
(587.5,567.5,c)
);
},
{
closed = 1;
nodes = (
(149.5,0,l),
(262,0,l),
(600,375,l),
(600,531.5,l),
(587.5,531.5,l),
(587.5,450,o),
(550.5,326.5,o),
(420,190,cs),
(366,134,o),
(210,7.5,o),
(112.5,7.5,c),
(112.5,0,l)
);
},
{
closed = 1;
nodes = (
(10,0,l),
(112.5,0,l),
(112.5,7.5,l),
(62.5,7.5,o),
(31,32.5,o),
(59,180,c),
(206.25,855,l),
(200.25,855,l),
(0,0,l)
);
}
);
width = 600;
}
);
},
{
glyphname = D.002;
layers = (
{
hints = (
{
name = _corner.leftSerif;
origin = (2,8);
type = Corner;
}
);
layerId = m01;
shapes = (
{
closed = 1;
nodes = (
(592,531.5,l),
(600,531.5,l),
(600,750,l),
(450,900,l),
(114,900,l),
(115,892.5,l),
(311.5,887.5,ls),
(462.5,883.5,o),
(582,720,o),
(592,670,c)
);
},
{
closed = 1;
nodes = (
(149.5,0,l),
(262,0,l),
(600,375,l),
(600,531.5,l),
(592,531.5,l),
(592,450.5,l),
(576,381,o),
(540,337.5,o),
(404,189,cs),
(350,130,o),
(210,7.5,o),
(112.5,7.5,c),
(112.5,0,l)
);
},
{
closed = 1;
nodes = (
(10,0,l),
(112.5,0,l),
(112.5,7.5,l),
(62.5,7.5,o),
(25.5,35.5,o),
(66,180,cs),
(256.5,855,l),
(250.5,855,l),
(0,0,l)
);
}
);
width = 525;
}
);
},
{
glyphname = E.001;
lastChange = "2023-07-24 11:20:02 +0000";
layers = (
{
layerId = m01;
shapes = (
{
closed = 1;
nodes = (
(150,897,l),
(354.5,891.5,ls),
(466.5,888.5,o),
(500,868,o),
(534.5,826.5,cs),
(570.5,783,o),
(572,678.5,o),
(572,650,c),
(575,650,l),
(575,900,l),
(150,900,l)
);
},
{
closed = 1;
nodes = (
(215,618.5,l),
(338,618.5,o),
(352.5,614,o),
(379,568,cs),
(392,545.5,o),
(394.5,519.5,o),
(397,482,c),
(400,482,l),
(400,625,l),
(215,625,l)
);
},
{
closed = 1;
nodes = (
(545,275,l),
(501.5,156,ls),
(452,20.5,o),
(446.5,5,o),
(293,5,cs),
(283,5,o),
(110,5,o),
(110,5,c),
(110,0,l),
(460.5,0,l),
(550,275,l)
);
},
{
ref = _part.stemNeue.001;
}
);
width = 550;
}
);
},
{
glyphname = H.001;
lastChange = "2023-07-24 04:32:20 +0000";
layers = (
{
layerId = m01;
shapes = (
{
closed = 1;
nodes = (
(525,509,l),
(517.5,509,l),
(511,827,l),
(510.5,887,o),
(461,897,o),
(411,897,c),
(411,900,l),
(511,900,l),
(525,900,l)
);
},
{
closed = 1;
nodes = (
(150,440,l),
(495,440,o),
(492,417,o),
(510,359,cs),
(517,336,o),
(519,134,o),
(521,75,c),
(525,75,l),
(525,450,l),
(150,450,l)
);
},
{
closed = 1;
nodes = (
(48,175.5,ls),
(-2.5,33,o),
(-50,5,o),
(-100,5,c),
(-100,0,l),
(110,0,l),
(110,8,l),
(60,8,o),
(17,32,o),
(65,174,cs),
(311.5,900,l),
(200,900,l),
(200,895,l),
(237.5,893,ls),
(287.5,890.5,o),
(285,841,o),
(262.5,777.5,cs)
);
}
);
width = 525;
}
);
},
{
glyphname = H.002;
lastChange = "2023-07-24 04:32:51 +0000";
layers = (
{
layerId = m01;
shapes = (
{
closed = 1;
nodes = (
(525,509,l),
(517.5,509,l),
(511,827,l),
(510.5,887,o),
(461,897,o),
(411,897,c),
(411,900,l),
(511,900,l),
(525,900,l)
);
},
{
closed = 1;
nodes = (
(150,440,l),
(495,440,o),
(492,417,o),
(510,359,cs),
(517,336,o),
(519,134,o),
(521,75,c),
(525,75,l),
(525,450,l),
(150,450,l)
);
},
{
piece = {
length = 110;
};
ref = _part.stemNeue.001;
}
);
width = 525;
}
);
},
{
glyphname = H.003;
lastChange = "2023-07-24 04:34:45 +0000";
layers = (
{
layerId = m01;
shapes = (
{
closed = 1;
nodes = (
(525,509,l),
(517.5,509,l),
(511,827,l),
(510.5,887,o),
(461,897,o),
(411,897,c),
(411,900,l),
(511,900,l),
(525,900,l)
);
},
{
closed = 1;
nodes = (
(150,440,l),
(495,440,o),
(492,417,o),
(510,359,cs),
(517,336,o),
(519,134,o),
(521,75,c),
(525,75,l),
(525,450,l),
(150,450,l)
);
},
{
closed = 1;
nodes = (
(48,175.5,ls),
(-2.5,33,o),
(-50,5,o),
(-100,5,c),
(-100,0,l),
(110,0,l),
(110,8,l),
(60,8,o),
(17,32,o),
(65,174,cs),
(311.5,900,l),
(125,900,l),
(125,895,l),
(187.5,893,ls),
(281,888,o),
(298.5,878,o),
(262.5,777.5,cs)
);
}
);
width = 525;
}
);
},
{
glyphname = I.001;
layers = (
{
layerId = m01;
shapes = (
{
closed = 1;
nodes = (
(272.5,674,l),
(307.5,825,ls),
(321,883.5,o),
(356.5,893,o),
(437.5,895,c),
(437.5,900,l),
(325.5,900,l),
(318,900,l),
(203,900,l),
(203,895,l),
(253,895,o),
(305,884.5,o),
(294.5,825,cs),
(267.5,674,l)
);
},
{
closed = 1;
nodes = (
(262.5,636.5,l),
(159,182.5,ls),
(126.5,40,o),
(82.5,5,o),
(-62.5,5,c),
(-62.5,0,l),
(136.5,0,l),
(140.5,0,l),
(255.5,0,l),
(255.5,5,l),
(205.5,5,o),
(151.5,33.5,o),
(180,181,cs),
(267.5,636.5,l)
);
}
);
width = 418.5;
}
);
},
{
glyphname = I.002;
lastChange = "2023-07-23 22:59:11 +0000";
layers = (
{
layerId = m01;
shapes = (
{
closed = 1;
nodes = (
(307.5,825,l),
(319.5,883.5,o),
(356.5,893,o),
(437.5,895,c),
(437.5,900,l),
(325.5,900,l),
(318,900,l),
(203,900,l),
(203,895,l),
(253,895,o),
(305.5,886,o),
(294.5,825,c)
);
},
{
closed = 1;
nodes = (
(243,539.5,l),
(159,182.5,ls),
(125.5,40.5,o),
(82.5,5,o),
(-62.5,5,c),
(-62.5,0,l),
(136.5,0,l),
(140.5,0,l),
(255.5,0,l),
(255.5,5,l),
(205.5,5,o),
(152,34,o),
(180,181,cs),
(248,539.5,l)
);
}
);
width = 418.5;
}
);
},
{
glyphname = I.003;
layers = (
{
layerId = m01;
shapes = (
{
closed = 1;
nodes = (
(302,800,ls),
(318.5,883,o),
(329.5,895,o),
(452,895,c),
(452,900,l),
(203,900,l),
(203,895,l),
(296,895,o),
(305.5,878.5,o),
(289,800,cs),
(159,182.5,l),
(125.5,40.5,o),
(82.5,5,o),
(-62.5,5,c),
(-62.5,0,l),
(136.5,0,l),
(140.5,0,l),
(255.5,0,l),
(255.5,5,l),
(205.5,5,o),
(151.5,34,o),
(180,181,c)
);
}
);
width = 418.5;
}
);
},
{
glyphname = I.004;
layers = (
{
layerId = m01;
shapes = (
{
closed = 1;
nodes = (
(401.5,800,ls),
(429,879.5,o),
(450,895,o),
(551.5,895,c),
(551.5,900,l),
(302.5,900,l),
(302.5,895,l),
(395.5,895,o),
(422,881.5,o),
(393,800,cs),
(173,182.5,ls),
(124,45,o),
(82.5,5,o),
(-62.5,5,c),
(-62.5,0,l),
(136.5,0,l),
(140.5,0,l),
(255.5,0,l),
(255.5,5,l),
(205.5,5,o),
(141,39.5,o),
(189.5,181,cs)
);
}
);
width = 418.5;
}
);
},
{
glyphname = K.001;
lastChange = "2023-07-24 04:12:44 +0000";
layers = (
{
layerId = m01;
shapes = (
{
closed = 1;
nodes = (
(200,387.5,l),
(421,472.5,ls),
(563.5,527.5,o),
(579.5,472,o),
(584.5,412,cs),
(594.5,292,o),
(595,245,o),
(595,145,c),
(600,145,l),
(600,555,l),
(200,400,l)
);
},
{
closed = 1;
nodes = (
(212.5,400,l),
(250,456.5,o),
(482,803.5,o),
(600,900,c),
(525,900,l),
(200,400,l)
);
},
{
piece = {
length = 110;
};
ref = _part.stemNeue.002;
}
);
width = 600;
}
);
},
{
glyphname = K.002;
lastChange = "2023-07-24 10:53:35 +0000";
layers = (
{
layerId = m01;
shapes = (
{
closed = 1;
nodes = (
(250,550,l),
(421,550,ls),
(571.5,550,o),
(579.5,472,o),
(584.5,412,cs),
(594.5,292,o),
(595,100,o),
(595,0,c),
(600,0,l),
(600,555,l),
(250,555,l)
);
},
{
closed = 1;
nodes = (
(262.5,555,l),
(300,611.5,o),
(482,803.5,o),
(600,900,c),
(525,900,l),
(250,555,l)
);
},
{
piece = {
length = 110;
};
ref = _part.stemNeue.002;
}
);
width = 600;
}
);
},
{
glyphname = N.001;
layers = (
{
layerId = m01;
shapes = (
{
closed = 1;
nodes = (
(69.5,900,l),
(69.5,897,l),
(231.5,897,o),
(256.5,859.5,o),
(300,813.5,cs),
(437.5,667.5,o),
(518.5,581.5,o),
(555,480,cs),
(588,389,o),
(594.5,262,o),
(594.5,73,c),
(600,73,l),
(600,500,l),
(244.5,900,l)
);
},
{
closed = 1;
nodes = (
(425,900,l),
(425,898.5,l),
(587,898.5,o),
(583,855,o),
(587,825,cs),
(595,765,o),
(594.5,651,o),
(594.5,600,c),
(600,600,l),
(600,900,l)
);
},
{
piece = {
stemAngle = -87.5;
stemLength = 80;
};
ref = _part.stem.001;
}
);
width = 600;
}
);
},
{
glyphname = N.002;
layers = (
{
layerId = m01;
shapes = (
{
piece = {
stemAngle = -75;
stemLength = 87.5;
};
pos = (-113,0);
ref = _part.stem.001;
},
{
closed = 1;
nodes = (
(69.5,900,l),
(69.5,897,l),
(231.5,897,o),
(255,809.5,o),
(275,750,cs),
(317.5,623.5,o),
(318.5,621.5,o),
(482.5,73,c),
(488,73,l),
(244.5,900,l)
);
},
{
closed = 1;
nodes = (
(362,900,l),
(362,897,l),
(524,897,o),
(522,810,o),
(524,750,cs),
(528,630,o),
(531.5,245,o),
(531.5,95,c),
(537,95,l),
(537,900,l)
);
}
);
width = 537;
}
);
},
{
glyphname = N.004;
lastChange = "2023-07-23 07:01:43 +0000";
layers = (
{
layerId = m01;
shapes = (
{
closed = 1;
nodes = (
(69.5,900,l),
(69.5,897,l),
(231.5,897,o),
(258,840,o),
(300,791.5,cs),
(375,704.5,o),
(518.5,489,o),
(555,387.5,cs),
(588,296.5,o),
(594.5,262,o),
(594.5,73,c),
(600,73,l),
(600,400,l),
(245,900,l)
);
},
{
closed = 1;
nodes = (
(425,900,l),
(425,898.5,l),
(587,898.5,o),
(581,855,o),
(585,825,cs),
(593,765,o),
(594.5,501,o),
(594.5,450,c),
(600,450,l),
(600,900,l)
);
},
{
piece = {
stemAngle = -87.5;
stemLength = 80;
};
ref = _part.stem.001;
}
);
width = 600;
}
);
},
{
glyphname = O.001;
lastChange = "2023-07-21 22:39:22 +0000";
layers = (
{
hints = (
{
name = _corner.leftSerif;
origin = (0,7);
type = Corner;
}
);
layerId = m01;
shapes = (
{
closed = 1;
nodes = (
(500,0,l),
(500,12,l),
(190.5,12,o),
(52,32,o),
(87,177.5,c),
(218,861,l),
(212,861,l),
(36,0,l)
);
},
{
piece = {
staffAngle = 0;
staffLength = 87.5;
staffThickness = 0;
staffWidth = 100;
};
ref = _part.staff;
}
);
width = 625;
}
);
},
{
glyphname = O.002;
layers = (
{
hints = (
{
name = _corner.leftSerif;
origin = (0,1);
type = Corner;
}
);
layerId = m01;
shapes = (
{
closed = 1;
nodes = (
(245,900,l),
(0,0,l),
(15,0,l),
(198,687.5,ls),
(225,788.5,o),
(250,892,o),
(350,892,cs),
(368,892,o),
(460,892,o),
(475,892,cs),
(575,892,o),
(590,808,o),
(590,756.5,c),
(590,531.5,l),
(600,403,l),
(600,900,l)
);
},
{
closed = 1;
nodes = (
(120,0,l),
(237,0,l),
(600,349.5,l),
(600,531.5,l),
(590,531.5,l),
(590,383.5,o),
(547.5,326.5,o),
(392,175.5,cs),
(335,120.5,o),
(244.5,5,o),
(147,5,c),
(120,5,l)
);
},
{
piece = {
length = 110;
};
ref = _part.stemNeue.001;
}
);
width = 600;
}
);
},
{
glyphname = Q.002;
lastChange = "2023-07-24 10:23:05 +0000";
layers = (
{
layerId = m01;
shapes = (
{
closed = 1;
nodes = (
(491,0,l),
(491,5,l),
(3.5,5,o),
(17,32,o),
(65,174,cs),
(311.5,900,l),
(306.5,900,l),
(48,175.5,ls),
(-2.5,34.5,o),
(-50,5,o),
(-100,5,c),
(-100,0,l)
);
},
{
closed = 1;
nodes = (
(600.5,900.5,l),
(600,531.5,l),
(595,531.5,l),
(595,700,ls),
(595,823.5,o),
(564,895,o),
(462.5,895,cs),
(374,895,ls),
(324,895,o),
(297,857.5,o),
(273.5,788,c),
(311.5,900,l)
);
},
{
closed = 1;
nodes = (
(265.5,28,l),
(600,349.5,l),
(600,531.5,l),
(595,531.5,l),
(595,383.5,o),
(555.5,316,o),
(400,165,c),
(260,35,l)
);
}
);
width = 638;
}
);
},
{
glyphname = U.001;
lastChange = "2023-07-18 09:18:34 +0000";
layers = (
{
hints = (
{
name = _corner.leftSerif;
origin = (0,12);
type = Corner;
}
);
layerId = m01;
shapes = (
{
closed = 1;
nodes = (
(225,0,l),
(225,5,l),
(163,5,o),
(33,32,o),
(68,177.5,c),
(237.5,900,l),
(241.5,900,l),
(87.5,777.5,l),
(94,769.5,l),
(133,800,o),
(225,875,o),
(197,766.5,cs),
(0,0,l)
);
},
{
closed = 1;
nodes = (
(542,125,o),
(400,5,o),
(250,5,cs),
(225,5,l),
(225,0,l),
(250,0,ls),
(382.5,0,o),
(500,50,o),
(550,100,c),
(550,900,l),
(400,800,l),
(400,788.5,l),
(450,823.5,ls),
(508.5,864.5,o),
(537,817.5,o),
(539.5,760,cs),
(542.5,657.5,o),
(541.5,452,o),
(542,300,c)
);
}
);
width = 550;
}
);
},
{
glyphname = U.002;
lastChange = "2023-07-19 21:43:16 +0000";
layers = (
{
hints = (
{
name = _corner.leftSerif;
origin = (0,18);
type = Corner;
},
{
name = _corner.rightSerif;
options = 1;
origin = (0,17);
scale = (1,0.75);
type = Corner;
}
);
layerId = m01;
shapes = (
{
closed = 1;
nodes = (
(541,0,o),
(552,493.5,o),
(552,622,c),
(550,900,l),
(400,900,l),
(400,894,l),
(450,892,ls),
(521.5,889,o),
(549,694.5,o),
(549,637,cs),
(549,507.5,o),
(518.5,36,o),
(170,36,c),
(108,36,o),
(33,32,o),
(68,177.5,c),
(237.5,900,l),
(231.5,900,l),
(0,0,l),
(150,0,l)
);
}
);
width = 550;
}
);
},
{
glyphname = U.003;
lastChange = "2023-07-21 22:39:22 +0000";
layers = (
{
hints = (
{
name = _corner.leftSerif;
origin = (0,7);
type = Corner;
},
{
name = _corner.rightSerif;
options = 1;
origin = (0,6);
scale = (1,0.75);
type = Corner;
}
);
layerId = m01;
shapes = (
{
closed = 1;
nodes = (
(225,0,l),
(225,5,l),
(163,5,o),
(33,32,o),
(68,177.5,c),
(237.5,900,l),
(231.5,900,l),
(0,0,l)
);
},
{
closed = 1;
nodes = (
(542,125,o),
(400,5,o),
(250,5,cs),
(225,5,l),
(225,0,l),
(250,0,ls),
(382.5,0,o),
(500,50,o),
(550,100,c),
(550,900,l),
(400,900,l),
(400,894,l),
(450,892,ls),
(521.5,889,o),
(537,817.5,o),
(539.5,760,cs),
(542.5,657.5,o),
(541.5,452,o),
(542,300,c)
);
}
);
width = 550;
}
);
},
{
glyphname = U.004;
layers = (
{
hints = (
{
name = _corner.leftSerif;
origin = (1,17);
type = Corner;
},
{
name = _corner.rightSerif;
options = 1;
origin = (1,16);
scale = (1,0.75);
type = Corner;
}
);
layerId = m01;
shapes = (
{
closed = 1;
nodes = (
(612.5,531.5,l),
(625,531.5,l),
(625,759.5,l),
(625,900,l),
(475,900,l),
(475,894,l),
(525,892,ls),
(596.5,889,o),
(605.5,817.5,o),
(608,760,c)
);
},
{
closed = 1;
nodes = (
(149.5,0,l),
(262,0,l),
(625,349.5,l),
(625,531.5,l),
(612.5,531.5,l),
(612.5,383.5,o),
(592.5,355.5,o),
(462.5,204.5,cs),
(410.5,144.5,o),
(269.5,27.5,o),
(172,27.5,c),
(159.5,27.5,l),
(126.5,27.5,o),
(64.5,32,o),
(101,177.5,cs),
(282.5,900,l),
(270,900,l),
(36,0,l)
);
}
);
width = 625;
}
);
},
{
glyphname = V.001;
lastChange = "2023-07-21 22:39:22 +0000";
layers = (
{
hints = (
{
name = _corner.rightSerif;
options = 1;
origin = (1,2);
type = Corner;
}
);
layerId = m01;
shapes = (
{
piece = {
stemAngle = -50;
stemThickness = 0;
topSerifLength = 100;
topSerifWidth = 0;
};
ref = _part.stem.003;
},
{
closed = 1;
nodes = (
(129.5,0,l),
(700,900,l),
(678.5,900,l),
(164.5,114,l),
(141.5,70.5,o),
(101,5,o),
(49.5,5,c),
(-14,5,l),
(-32.5,0,l)
);
}
);
width = 650;
}
);
},
{
glyphname = W.001;
lastChange = "2023-07-21 22:39:22 +0000";
layers = (
{
hints = (
{
name = _corner.rightSerif;
options = 1;
origin = (1,2);
type = Corner;
},
{
name = _corner.rightSerif;
options = 1;
origin = (2,2);
type = Corner;
}
);
layerId = m01;
shapes = (
{
piece = {
stemAngle = -50;
stemThickness = 0;
topSerifLength = 100;
topSerifWidth = 0;
};
ref = _part.stem.003;
},
{
closed = 1;
nodes = (
(129.5,0,l),
(700,900,l),
(687.5,900,l),
(125,20,l),
(61,50,o),
(39,78.5,o),
(71,224,c),
(20,0,l)
);
},
{
closed = 1;
nodes = (
(479.5,0,l),
(1050,900,l),
(1037.5,900,l),
(475,20,l),
(396,20,o),
(450,225,o),
(467.5,275,c),
(700,900,l),
(687.5,900,l),
(350,0,l)
);
}
);
width = 900;
}
);
},
{
glyphname = Y.001;
layers = (
{
hints = (
{
name = _corner.leftSerif;
origin = (0,3);
scale = (3,2);
type = Corner;
},
{
name = _corner.rightSerif;
options = 1;
origin = (0,0);
scale = (1,0.65);
type = Corner;
}
);
layerId = m01;
shapes = (
{
closed = 1;
nodes = (
(101,0,l),
(494,345.5,l),
(490,345.5,l),
(81,0,l)
);
},
{
closed = 1;
nodes = (
(267.5,240,l),
(500,390,l),
(500,900,l),
(307.5,900,l),
(307.5,895,l),
(355,895,o),
(444,890.5,o),
(465,850,cs),
(494,794.5,o),
(491.5,487.5,o),
(465,420,cs),
(441.5,360.5,o),
(321,289.5,o),
(252.5,240,c)
);
},
{
closed = 1;
nodes = (
(265,240,l),
(272.5,248.5,l),
(190,248.5,o),
(190,284,o),
(190,317.5,c),
(190,900,l),
(85,900,l),
(85,895,l),
(106.5,895,ls),
(144,895,o),
(188,850,o),
(175,750,c),
(175,240,l)
);
}
);
width = 450;
}
);
},
{
glyphname = A.fina;
lastChange = "2023-07-27 21:23:24 +0000";
layers = (
{
layerId = m01;
shapes = (
{
piece = {
staffLength = 60;
};
pos = (-125,0);
ref = _part.staff;
},
{
closed = 1;
nodes = (
(175,290,l),
(385,290,o),
(437,268,o),
(455,210,cs),
(462,187,o),
(469,59,o),
(471,0,c),
(475,0,l),
(475,300,l),
(175,300,l)
);
},
{
piece = {
length = 100;
};
pos = (25,0);
ref = _part.stemNeue.001;
}
);
width = 475;
}
);
},
{
glyphname = T_H_E;
lastChange = "2023-07-24 12:00:14 +0000";
layers = (
{
layerId = m01;
shapes = (
{
closed = 1;
nodes = (
(50,895,l),
(280,895,ls),
(534.5,895,o),
(580,895,o),
(616.5,866.5,cs),
(650,840.5,o),
(667.5,806.5,o),
(590,587.5,c),
(621,650,l),
(706.5,900,l),
(50,900,l)
);
},
{
closed = 1;
nodes = (
(443,175.5,ls),
(392.5,33.5,o),
(345,5,o),
(295,5,c),
(295,0,l),
(505,0,l),
(505,5,l),
(455,5,o),
(412,32,o),
(460,174,cs),
(706.5,900,l),
(701.5,900,l)
);
},
{
closed = 1;
nodes = (
(950,897,l),
(1154.5,891.5,ls),
(1266.5,888.5,o),
(1300,868,o),
(1334.5,826.5,cs),
(1370.5,783,o),
(1372,678.5,o),
(1372,650,c),
(1375,650,l),
(1375,900,l),
(950,900,l)
);
},
{
closed = 1;
nodes = (
(607.5,618.5,l),
(1152.5,614,o),
(1158,613.5,o),
(1179,575.5,cs),
(1191.5,553,o),
(1194.5,519.5,o),
(1197,482,c),
(1200,482,l),
(1200,625,l),
(607.5,625,l)
);
},
{
closed = 1;
nodes = (
(1377.5,275,l),
(1334.5,156,ls),
(1284.5,18,o),
(1279.5,5,o),
(1118,5,cs),
(1108,5,o),
(910,5,o),
(910,5,c),
(910,0,l),
(1293.5,0,l),
(1382.5,275,l)
);
},
{
pos = (800,0);
ref = _part.stemNeue.001;
},
{
pos = (25,0);
ref = _part.stemNeue.001;
},
{
closed = 1;
nodes = (
(-45,650,l),
(-45,883,o),
(3.5,895,o),
(76.5,895,c),
(76.5,900,l),
(-49.5,900,l),
(-50,650,l)
);
}
);
width = 1350;
}
);
},
{
glyphname = T_H_E.001;
lastChange = "2023-07-24 11:12:10 +0000";
layers = (
{
layerId = m01;
shapes = (
{
closed = 1;
nodes = (
(50,895,l),
(280,895,ls),
(534.5,895,o),
(580,895,o),
(616.5,866.5,cs),
(650,840.5,o),
(667.5,806.5,o),
(590,587.5,c),
(621,650,l),
(706.5,900,l),
(50,900,l)
);
},
{
closed = 1;
nodes = (
(443,175.5,ls),
(392.5,33.5,o),
(345,5,o),
(295,5,c),
(295,0,l),
(505,0,l),
(505,5,l),
(455,5,o),
(412,32,o),
(460,174,cs),
(706.5,900,l),
(701.5,900,l)
);
},
{
closed = 1;
nodes = (
(975,897,l),
(1179.5,891.5,ls),
(1291.5,888.5,o),
(1325,868,o),
(1359.5,826.5,cs),
(1395.5,783,o),
(1397,678.5,o),
(1397,650,c),
(1400,650,l),
(1400,900,l),
(975,900,l)
);
},
{
closed = 1;
nodes = (
(604.5,618.5,l),
(1124.5,614,o),
(1183,613.5,o),
(1204,575.5,cs),
(1216.5,553,o),
(1219.5,519.5,o),
(1222,482,c),
(1225,482,l),
(1225,625,l),
(604.5,625,l)
);
},
{
closed = 1;
nodes = (
(1395,337.5,l),
(1395,150,ls),
(1395,42.5,o),
(1352,5,o),
(1237.5,5,cs),
(1227.5,5,o),
(935,5,o),
(935,5,c),
(935,0,l),
(1400,0,l),
(1400,337.5,l)
);
},
{
pos = (825,0);
ref = _part.stemNeue.001;
},
{
pos = (25,0);
ref = _part.stemNeue.001;
},
{
closed = 1;
nodes = (
(-45,650,l),
(-45,883,o),
(3.5,895,o),
(76.5,895,c),
(76.5,900,l),
(-49.5,900,l),
(-50,650,l)
);
}
);
width = 1350;
}
);
},
{
glyphname = one;
lastChange = "2023-07-24 12:25:54 +0000";
layers = (
{
layerId = m01;
shapes = (
{
ref = _part.stemNeue.001;
},
{
closed = 1;
nodes = (
(72.5,895,l),
(172.5,895,ls),
(322.5,895,o),
(350.5,875.5,o),
(352.5,858,cs),
(356.5,825,o),
(365,692,o),
(365,650,c),
(372.5,650,l),
(372.5,893,l),
(372.5,900,l),
(72.5,900,l)
);
}
);
width = 450;
}
);
unicode = 49;
},
{
export = 0;
glyphname = _corner.leftSerif;
lastChange = "2023-07-13 02:21:55 +0000";
layers = (
{
anchors = (
{
name = left;
pos = (0,40);
},
{
name = origin;
},
{
name = right;
pos = (17.5,0);
}
);
layerId = m01;
shapes = (
{
closed = 0;
nodes = (
(0,184,l),
(0,34,o),
(-50,5,o),
(-100,5,c),
(-100,0,l),
(0,0,l)
);
}
);
width = 600;
}
);
},
{
export = 0;
glyphname = _corner.rightSerif;
lastChange = "2023-07-16 23:53:49 +0000";
layers = (
{
layerId = m01;
shapes = (
{
closed = 0;
nodes = (
(-10,0,l),
(105,0,l),
(105,5,l),
(55,5,o),
(5,34,o),
(5,184,c)
);
}
);
width = 600;
}
);
},
{
export = 0;
glyphname = _part.bowl;
lastChange = "2023-07-18 08:13:01 +0000";
layers = (
{
hints = (
{
name = _corner.leftSerif;
origin = (0,7);
type = Corner;
}
);
layerId = m01;
partSelection = {
topWidth = 1;
bottomWidth = 1;
bottomAngle = 1;
topAngle = 2;
};
shapes = (
{
closed = 1;
nodes = (
(300,894,l),
(400,892.222,ls),
(550,889.5,o),
(573,809.5,o),
(579.5,750,cs),
(592.5,629,o),
(587,560,o),
(587,500,c),
(600,500,l),
(600,900,l),
(300,900,l)
);
}
);
width = 600;
},
{
associatedMasterId = m01;
hints = (
{
name = _corner.leftSerif;
origin = (0,7);
scale = (3,0.8);
type = Corner;
}
);
layerId = "6A960D11-B739-4E4E-A7EA-28E121AE5662";
name = "Bottom Widened";
partSelection = {
topWidth = 1;
bottomWidth = 2;
bottomAngle = 1;
topAngle = 2;
};
shapes = (
{
closed = 1;
nodes = (
(300,894,l),
(400,892.222,ls),
(550,891,o),
(587.5,809.5,o),
(587.5,750,cs),
(587.5,578,o),
(587.5,560,o),
(587.5,500,c),
(600,500,l),
(600,900,l),
(300,900,l)
);
}
);
width = 600;
},
{
associatedMasterId = m01;
hints = (
{
name = _corner.leftSerif;
origin = (0,7);
type = Corner;
}
);
layerId = "449C2E8E-F864-47EF-8C1B-D79FA4CFE819";
name = "Top Widened";
partSelection = {
topWidth = 2;
bottomWidth = 1;
bottomAngle = 1;
topAngle = 2;
};
shapes = (
{
closed = 1;
nodes = (
(150,894,l),
(400,892.222,ls),
(550,889.5,o),
(573,809.5,o),
(579.5,750,cs),
(592.5,629,o),
(587,560,o),
(587,500,c),
(600,500,l),
(600,900,l),
(150,900,l)
);
}
);
width = 600;
},
{
associatedMasterId = m01;
hints = (
{
name = _corner.leftSerif;
origin = (0,7);
scale = (2,1);
type = Corner;
}
);
layerId = "4296E79F-CA92-4C0C-9C21-9104BB32CE00";
name = "P Var";
partSelection = {
topWidth = 1;
bottomWidth = 1;
bottomAngle = 2;
topAngle = 2;
};
shapes = (
{
closed = 1;
nodes = (
(300,894,l),
(400,892.222,ls),
(550,889.5,o),
(573,809.5,o),
(579.5,750,cs),
(592.5,629,o),
(587,555,o),
(587,495,c),
(600,500,l),
(600,900,l),
(300,900,l)
);
}
);
width = 600;
},
{
associatedMasterId = m01;
hints = (
{
name = _corner.leftSerif;
origin = (0,7);
scale = (1.25,0.8);
type = Corner;
}
);
layerId = "350090A1-3020-4D94-93B9-B424075598D2";
name = "B Var";
partSelection = {
topWidth = 1;
bottomWidth = 1;
bottomAngle = 1;
topAngle = 1;
};
shapes = (
{
closed = 1;
nodes = (
(300,894,l),
(375,892,ls),
(475,889.5,o),
(508.5,809.5,o),
(525,750,cs),
(557.5,633,o),
(587,560,o),
(587,500,c),
(600,500,l),
(500,900,l),
(300,900,l)
);
}
);
width = 600;
}
);
partsSettings = (
{
bottomValue = 0;
name = topWidth;
topValue = 100;
},
{
bottomValue = 0;
name = bottomWidth;
topValue = 100;
},
{
bottomValue = 0;
name = bottomAngle;
topValue = 100;
},
{
bottomValue = -100;
name = topAngle;
topValue = 0;
}
);
},
{
export = 0;
glyphname = _part.staff;
lastChange = "2023-07-20 02:58:33 +0000";
layers = (
{
layerId = m01;
partSelection = {
staffLength = 2;
staffWidth = 1;
staffThickness = 1;
staffAngle = 2;
};
shapes = (
{
closed = 1;
nodes = (
(300,893.889,l),
(400,892.222,ls),
(550,889.5,o),
(578,810,o),
(580,750,cs),
(584,630,o),
(592.5,150,o),
(592.5,0,c),
(600,0,l),
(600,875,l),
(600,900,l),
(300,900,l)
);
}
);
width = 600;
},
{
associatedMasterId = m01;
layerId = "45510E9A-48B7-4B14-8021-CF23C84B157D";
name = Short;
partSelection = {
staffLength = 1;
staffWidth = 1;
staffThickness = 1;
staffAngle = 2;
};
shapes = (
{
closed = 1;
nodes = (
(300,893.889,l),
(400,892.222,ls),
(500,890.5,o),
(550.5,867.5,o),
(575,825,cs),
(589.5,800,o),
(592.5,791,o),
(592.5,750,c),
(600,750,l),
(600,868.5,l),
(600,900,l),
(300,900,l)
);
}
);
width = 600;
},
{
associatedMasterId = m01;
layerId = "EFD017F6-EE07-4665-BD36-169C64CDCDD7";
name = Overshoot;
partSelection = {
staffLength = 2;
staffWidth = 2;
staffThickness = 1;
staffAngle = 2;
};
shapes = (
{
closed = 1;
nodes = (
(150,894,l),
(400,892,ls),
(550,891,o),
(578,810,o),
(580,750,cs),
(584,630,o),
(592.5,150,o),
(592.5,0,c),
(600,0,l),
(600,861.5,l),
(600,900,l),
(150,900,l)
);
}
);
width = 600;
},
{
associatedMasterId = m01;
layerId = "84F8DF0D-FB19-42AA-8266-BFDC47CA1A34";
name = Thickened;
partSelection = {
staffLength = 2;
staffWidth = 1;
staffThickness = 2;
staffAngle = 2;
};
shapes = (
{
closed = 1;
nodes = (
(300,894,l),
(400,892.5,ls),
(550,890.5,o),
(558,810,o),
(560,750,cs),
(564,630,o),
(565,450,o),
(565,300,c),
(600,300,l),
(600,843,l),
(600,900,l),
(300,900,l)
);
}
);
width = 600;
},
{
associatedMasterId = m01;
layerId = "2B46FD26-CF6F-4FF8-81EA-D3F83A1609B6";
name = Angle;
partSelection = {
staffLength = 2;
staffWidth = 1;
staffThickness = 1;
staffAngle = 1;
};
shapes = (
{
closed = 1;
nodes = (
(300,893.889,l),
(400,894,ls),
(550.5,894,o),
(580,658,o),
(580,607.5,cs),
(580,487.5,o),
(592.5,150,o),
(592.5,0,c),
(600,0,l),
(600,750,l),
(470,900,l),
(300,900,l)
);
}
);
width = 600;
}
);
partsSettings = (
{
bottomValue = 0;
name = staffLength;
topValue = 100;
},
{
bottomValue = 0;
name = staffWidth;
topValue = 100;
},
{
bottomValue = 0;
name = staffThickness;
topValue = 100;
},
{
bottomValue = -100;
name = staffAngle;
topValue = 0;
}
);
},
{
export = 0;
glyphname = _part.stroke;
lastChange = "2023-07-20 00:43:41 +0000";
layers = (
{
layerId = m01;
partSelection = {
Diagonal = 1;
Rotate = 2;
};
shapes = (
{
closed = 1;
nodes = (
(300,290,l),
(510,290,o),
(562,268,o),
(580,210,cs),
(587,187,o),
(594,135,o),
(596,76,c),
(600,76,l),
(600,300,l),
(300,300,l)
);
}
);
width = 600;
},
{
associatedMasterId = m01;
layerId = "BCFDD148-B77D-406A-87A2-E55CD788FCE5";
name = "R Var";
partSelection = {
Diagonal = 2;
Rotate = 2;
};
shapes = (
{
closed = 1;
nodes = (
(250,595,l),
(531,432,o),
(557,393,o),
(575,335,cs),
(582,312,o),
(594,144,o),
(596,85,c),
(600,85,l),
(600,400,l),
(251,600,l)
);
}
);
width = 600;
},
{
associatedMasterId = m01;
layerId = "2834D512-1EE6-4049-A1BD-C0EA1FC05F32";
name = "B Var";
partSelection = {
Diagonal = 2;
Rotate = 1;
};
shapes = (
{
closed = 1;
nodes = (
(250,595,l),
(531,432,o),
(532,412,o),
(550,354,cs),
(561.5,315.5,o),
(480.5,59,o),
(461,0,c),
(465,0,l),
(600,400,l),
(251,600,l)
);
}
);
width = 600;
},
{
associatedMasterId = m01;
layerId = "CF8D0534-06A1-4E55-BF35-BA610B411878";
name = "G Var";
partSelection = {
Diagonal = 1;
Rotate = 1;
};
shapes = (
{
closed = 1;
nodes = (
(300,290,l),
(510,290,o),
(537,268,o),
(555,210,cs),
(562,187,o),
(559,135,o),
(546,76,c),
(550,76,l),
(600,300,l),
(300,300,l)
);
}
);
width = 600;
}
);
partsSettings = (
{
bottomValue = -100;
name = Diagonal;
topValue = 0;
},
{
bottomValue = -100;
name = Rotate;
topValue = 0;
}
);
},
{
export = 0;
glyphname = _part.stem.001;
lastChange = "2023-07-21 04:50:12 +0000";
layers = (
{
hints = (
{
name = _corner.leftSerif;
origin = (0,3);
type = Corner;
},
{
name = _corner.rightSerif;
options = 1;
origin = (0,0);
type = Corner;
}
);
layerId = m01;
partSelection = {
stemLength = 2;
serifLength = 1;
stemWidth = 1;
stemAngle = 2;
};
shapes = (
{
closed = 1;
nodes = (
(20,0,l),
(600,900,l),
(594,900,l),
(0,0,l)
);
}
);
width = 600;
},
{
associatedMasterId = m01;
hints = (
{
name = _corner.leftSerif;
origin = (0,3);
type = Corner;
},
{
name = _corner.rightSerif;
options = 1;
origin = (0,0);
type = Corner;
}
);
layerId = "FD32427F-FC09-4938-9257-7B45657633AB";
name = Upright;
partSelection = {
stemLength = 2;
serifLength = 1;
stemWidth = 1;
stemAngle = 1;
};
shapes = (
{
closed = 1;
nodes = (
(20,0,l),
(150,900,l),
(144,900,l),
(0,0,l)
);
}
);
width = 600;
},
{
associatedMasterId = m01;
hints = (
{
name = _corner.leftSerif;
origin = (0,3);
type = Corner;
},
{
name = _corner.rightSerif;
options = 1;
origin = (0,0);
scale = (5,1);
type = Corner;
}
);
layerId = "E9044493-4DE1-40B2-A24E-6433A3027068";
name = Sharpened;
partSelection = {
stemLength = 2;
serifLength = 2;
stemWidth = 1;
stemAngle = 2;
};
shapes = (
{
closed = 1;
nodes = (
(20,0,l),
(600,900,l),
(594,900,l),
(0,0,l)
);
}
);
width = 600;
},
{
associatedMasterId = m01;
hints = (
{
name = _corner.leftSerif;
origin = (0,3);
type = Corner;
},
{
name = _corner.rightSerif;
options = 1;
origin = (0,0);
type = Corner;
}
);
layerId = "AF2E0F19-1B60-4EE5-A479-968FD8456FCB";
name = "Upright Short";
partSelection = {
stemLength = 1;
serifLength = 1;
stemWidth = 1;
stemAngle = 1;
};
shapes = (
{
closed = 1;
nodes = (
(20,0,l),
(150,600,l),
(144,600,l),
(0,0,l)
);
}
);
width = 600;
},
{
associatedMasterId = m01;
hints = (
{
name = _corner.leftSerif;
origin = (0,3);
type = Corner;
},
{
name = _corner.rightSerif;
options = 1;
origin = (0,0);
scale = (3,0.6);
type = Corner;
}
);
layerId = "92E17FEF-DCC5-44C6-9995-F39E5DB9001A";
name = "Short Sharpened";
partSelection = {
stemLength = 1;
serifLength = 2;
stemWidth = 1;
stemAngle = 2;
};
shapes = (
{
closed = 1;
nodes = (
(20,0,l),
(400,600,l),
(394,600,l),
(0,0,l)
);
}
);
width = 600;
},
{
associatedMasterId = m01;
hints = (
{
name = _corner.leftSerif;
origin = (0,3);
type = Corner;
},
{
name = _corner.rightSerif;
options = 1;
origin = (0,0);
scale = (3,0.6);
type = Corner;
}
);
layerId = "1B631D66-179C-4168-BF60-A02E33B6DEAC";
name = "Upright Short Sharpened";
partSelection = {
stemLength = 1;
serifLength = 2;
stemWidth = 1;
stemAngle = 1;
};
shapes = (
{
closed = 1;
nodes = (
(20,0,l),
(150,600,l),
(144,600,l),
(0,0,l)
);
}
);
width = 600;
}
);
partsSettings = (
{
bottomValue = 0;
name = stemLength;
topValue = 100;
},
{
bottomValue = 0;
name = serifLength;
topValue = 400;
},
{
bottomValue = 0;
name = stemWidth;
topValue = 100;
},
{
bottomValue = -100;
name = stemAngle;
topValue = 0;
}
);
},
{
export = 0;
glyphname = _part.stem.002;
lastChange = "2023-07-21 22:03:59 +0000";
layers = (
{
hints = (
{
name = _corner.leftSerif;
origin = (0,3);
type = Corner;
},
{
name = _corner.rightSerif;
options = 1;
origin = (0,0);
type = Corner;
},
{
name = _corner.rightSerif;
options = 1;
origin = (0,2);
scale = (1,0.75);
type = Corner;
}
);
layerId = m01;
partSelection = {
stemLength = 2;
serifLength = 1;
stemWidth = 1;
stemAngle = 2;
};
shapes = (
{
closed = 1;
nodes = (
(20,0,l),
(300,900,l),
(294,900,l),
(0,0,l)
);
}
);
width = 600;
},
{
associatedMasterId = m01;
hints = (
{
name = _corner.leftSerif;
origin = (0,3);
type = Corner;
},
{
name = _corner.rightSerif;
options = 1;
origin = (0,0);
type = Corner;
},
{
name = _corner.rightSerif;
options = 1;
origin = (0,2);
scale = (1,0.75);
type = Corner;
}
);
layerId = "FD32427F-FC09-4938-9257-7B45657633AB";
name = Upright;
partSelection = {
stemLength = 2;
serifLength = 1;
stemWidth = 1;
stemAngle = 1;
};
shapes = (
{
closed = 1;
nodes = (
(20,0,l),
(150,900,l),
(144,900,l),
(0,0,l)
);
}
);
width = 600;
},
{
associatedMasterId = m01;
hints = (
{
name = _corner.leftSerif;
origin = (0,3);
type = Corner;
},
{
name = _corner.rightSerif;
options = 1;
origin = (0,0);
scale = (5.5,1);
type = Corner;
},
{
name = _corner.rightSerif;
options = 1;
origin = (0,2);
scale = (1,0.75);
type = Corner;
}
);
layerId = "E9044493-4DE1-40B2-A24E-6433A3027068";
name = Sharpened;
partSelection = {
stemLength = 2;
serifLength = 2;
stemWidth = 1;
stemAngle = 2;
};
shapes = (
{
closed = 1;
nodes = (
(20,0,l),
(300,900,l),
(294,900,l),
(0,0,l)
);
}
);
width = 600;
},
{
associatedMasterId = m01;
hints = (
{
name = _corner.leftSerif;
origin = (0,3);
type = Corner;
},
{
name = _corner.rightSerif;
options = 1;
origin = (0,0);
type = Corner;
},
{
name = _corner.rightSerif;
options = 1;
origin = (0,2);
scale = (0.5,0.5);
type = Corner;
}
);
layerId = "AF2E0F19-1B60-4EE5-A479-968FD8456FCB";
name = "Upright Short";
partSelection = {
stemLength = 1;
serifLength = 1;
stemWidth = 1;
stemAngle = 1;
};
shapes = (
{
closed = 1;
nodes = (
(20,0,l),
(150,600,l),
(144,600,l),
(0,0,l)
);
}
);
width = 600;
},
{
associatedMasterId = m01;
hints = (
{
name = _corner.leftSerif;
origin = (0,3);
type = Corner;
},
{
name = _corner.rightSerif;
options = 1;
origin = (0,0);
scale = (3,0.6);
type = Corner;
},
{
name = _corner.rightSerif;
options = 1;
origin = (0,2);
scale = (0.5,0.5);
type = Corner;
}
);
layerId = "92E17FEF-DCC5-44C6-9995-F39E5DB9001A";
name = "Short Sharpened";
partSelection = {
stemLength = 1;
serifLength = 2;
stemWidth = 1;
stemAngle = 2;
};
shapes = (
{
closed = 1;
nodes = (
(20,0,l),
(250,600,l),
(244,600,l),
(0,0,l)
);
}
);
width = 600;
},
{
associatedMasterId = m01;
hints = (
{
name = _corner.leftSerif;
origin = (0,3);
type = Corner;
},
{
name = _corner.rightSerif;
options = 1;
origin = (0,0);
scale = (3,0.6);
type = Corner;
},
{
name = _corner.rightSerif;
options = 1;
origin = (0,2);
scale = (0.5,0.5);
type = Corner;
}
);
layerId = "1B631D66-179C-4168-BF60-A02E33B6DEAC";
name = "Upright Short Sharpened";
partSelection = {
stemLength = 1;
serifLength = 2;
stemWidth = 1;
stemAngle = 1;
};
shapes = (
{
closed = 1;
nodes = (
(20,0,l),
(150,600,l),
(144,600,l),
(0,0,l)
);
}
);
width = 600;
}
);
partsSettings = (
{
bottomValue = 0;
name = stemLength;
topValue = 100;
},
{
bottomValue = 0;
name = serifLength;
topValue = 100;
},
{
bottomValue = 0;
name = stemWidth;
topValue = 100;
},
{
bottomValue = -100;
name = stemAngle;
topValue = 0;
}
);
},
{
export = 0;
glyphname = _part.stem.003;
lastChange = "2023-07-18 07:11:52 +0000";
layers = (
{
hints = (
{
name = _corner.leftSerif;
origin = (0,3);
type = Corner;
},
{
name = _corner.rightSerif;
options = 1;
origin = (0,2);
scale = (1,0.5);
type = Corner;
}
);
layerId = m01;
partSelection = {
stemLength = 2;
stemWidth = 1;
stemAngle = 2;
topSerifLength = 1;
stemThickness = 1;
topSerifWidth = 1;
};
shapes = (
{
closed = 1;
nodes = (
(20,0,l),
(300,900,l),
(294,900,l),
(0,0,l)
);
}
);
width = 600;
},
{
associatedMasterId = m01;
hints = (
{
name = _corner.leftSerif;
origin = (0,3);
type = Corner;
},
{
name = _corner.rightSerif;
options = 1;
origin = (0,2);
scale = (1,0.5);
type = Corner;
}
);
layerId = "FD32427F-FC09-4938-9257-7B45657633AB";
name = Upright;
partSelection = {
stemLength = 2;
stemWidth = 1;
stemAngle = 1;
topSerifLength = 1;
stemThickness = 1;
topSerifWidth = 1;
};
shapes = (
{
closed = 1;
nodes = (
(20,0,l),
(150,900,l),
(144,900,l),
(0,0,l)
);
}
);
width = 600;
},
{
associatedMasterId = m01;
hints = (
{
name = _corner.leftSerif;
origin = (0,3);
type = Corner;
},
{
name = _corner.rightSerif;
options = 1;
origin = (0,2);
scale = (0.5,0.5);
type = Corner;
}
);
layerId = "AF2E0F19-1B60-4EE5-A479-968FD8456FCB";
name = "Upright Short";
partSelection = {
stemLength = 1;
stemWidth = 1;
stemAngle = 1;
topSerifLength = 1;
stemThickness = 1;
topSerifWidth = 1;
};
shapes = (
{
closed = 1;
nodes = (
(20,0,l),
(150,600,l),
(144,600,l),
(0,0,l)
);
}
);
width = 600;
},
{
associatedMasterId = m01;
hints = (
{
name = _corner.leftSerif;
origin = (0,3);
type = Corner;
},
{
name = _corner.rightSerif;
options = 1;
origin = (0,2);
scale = (1,1.5);
type = Corner;
}
);
layerId = "902356E4-1F1B-46EF-ADDD-3DB093914AC1";
name = "Big Serif";
partSelection = {
stemLength = 2;
stemWidth = 1;
stemAngle = 2;
topSerifLength = 2;
stemThickness = 1;
topSerifWidth = 1;
};
shapes = (
{
closed = 1;
nodes = (
(20,0,l),
(300,900,l),
(294,900,l),
(0,0,l)
);
}
);
width = 600;
},
{
associatedMasterId = m01;
hints = (
{
name = _corner.leftSerif;
origin = (0,3);
type = Corner;
},
{
name = _corner.rightSerif;
options = 1;
origin = (0,2);
scale = (1,1.5);
type = Corner;
}
);
layerId = "357F620B-70BA-47B6-8952-31725386BEF3";
name = "Upright Big Serif";
partSelection = {
stemLength = 2;
stemWidth = 1;
stemAngle = 1;
topSerifLength = 2;
stemThickness = 1;
topSerifWidth = 1;
};
shapes = (
{
closed = 1;
nodes = (
(20,0,l),
(150,900,l),
(144,900,l),
(0,0,l)
);
}
);
width = 600;
},
{
associatedMasterId = m01;
hints = (
{
name = _corner.leftSerif;
origin = (0,3);
type = Corner;
},
{
name = _corner.rightSerif;
options = 1;
origin = (0,2);
scale = (1,0.5);
type = Corner;
}
);
layerId = "A63AB54F-A03C-4418-9052-3E475C861B4B";
name = Thickened;
partSelection = {
stemLength = 2;
stemWidth = 1;
stemAngle = 2;
topSerifLength = 1;
stemThickness = 2;
topSerifWidth = 1;
};
shapes = (
{
closed = 1;
nodes = (
(30,0,l),
(310,900,l),
(285,900,l),
(0,0,l)
);
}
);
width = 600;
},
{
associatedMasterId = m01;
hints = (
{
name = _corner.leftSerif;
origin = (0,3);
type = Corner;
},
{
name = _corner.rightSerif;
options = 1;
origin = (0,2);
scale = (3,0.75);
type = Corner;
}
);
layerId = "A9D99E32-4A81-4AF2-9B35-EB9D673D2D96";
name = "Wide Serif";
partSelection = {
stemLength = 2;
stemWidth = 1;
stemAngle = 2;
topSerifLength = 1;
stemThickness = 1;
topSerifWidth = 2;
};
shapes = (
{
closed = 1;
nodes = (
(20,0,l),
(300,900,l),
(294,900,l),
(0,0,l)
);
}
);
width = 600;
}
);
partsSettings = (
{
bottomValue = 0;
name = stemLength;
topValue = 100;
},
{
bottomValue = 0;
name = stemWidth;
topValue = 100;
},
{
bottomValue = -100;
name = stemAngle;
topValue = 0;
},
{
bottomValue = 0;
name = topSerifLength;
topValue = 100;
},
{
bottomValue = 0;
name = stemThickness;
topValue = 100;
},
{
bottomValue = 0;
name = topSerifWidth;
topValue = 100;
}
);
},
{
export = 0;
glyphname = _part.stemNeue.001;
lastChange = "2023-07-24 06:58:30 +0000";
layers = (
{
layerId = m01;
partSelection = {
length = 2;
bottomStress = 1;
};
shapes = (
{
closed = 1;
nodes = (
(110,0,l),
(110,5,l),
(60,5,o),
(16.5,32,o),
(65,174,cs),
(304.5,877.5,l),
(298.5,877.5,l),
(48,175.5,ls),
(-2.5,34.5,o),
(-50,5,o),
(-100,5,c),
(-100,0,l)
);
}
);
width = 450;
},
{
associatedMasterId = m01;
attr = {
coordinates = (
110,
100
);
};
layerId = "D760C6AE-0FD8-4BC6-B001-FEB11E95D73F";
name = Tall;
partSelection = {
length = 2;
bottomStress = 1;
};
shapes = (
{
closed = 1;
nodes = (
(110,0,l),
(110,25,l),
(60,25,o),
(17,32,o),
(65,174,cs),
(311.5,900,l),
(306.5,900,l),
(48,175.5,ls),
(-2.5,34.5,o),
(-50,5,o),
(-100,5,c),
(-100,0,l)
);
}
);
width = 450;
},
{
associatedMasterId = m01;
layerId = "29E2C99E-A6BF-45EB-AD38-0A019FADFEFA";
name = Short;
partSelection = {
length = 1;
bottomStress = 1;
};
shapes = (
{
closed = 1;
nodes = (
(110,0,l),
(110,5,l),
(60,5,o),
(17,31.5,o),
(65,174,cs),
(208.5,600,l),
(202.5,600,l),
(48,175.5,ls),
(-3,35,o),
(-50,5,o),
(-100,5,c),
(-100,0,l)
);
}
);
width = 450;
},
{
associatedMasterId = m01;
layerId = "82704771-3D27-4758-9011-210403D7CAB3";
name = "Bottom Stress";
partSelection = {
length = 2;
bottomStress = 2;
};
shapes = (
{
closed = 1;
nodes = (
(110,0,l),
(110,25,l),
(60,25,o),
(16.5,32,o),
(65,174,cs),
(304.5,877.5,l),
(298.5,877.5,l),
(48,175.5,ls),
(-2.5,34.5,o),
(-50,5,o),
(-100,5,c),
(-100,0,l)
);
}
);
width = 450;
},
{
associatedMasterId = m01;
attr = {
coordinates = (
110,
0
);
};
layerId = "EB823437-94B4-4460-AA8E-FD51F1632175";
name = "{110} Jul 23, 23 at 20:34";
partSelection = {
length = 2;
bottomStress = 1;
};
shapes = (
{
closed = 1;
nodes = (
(110,0,l),
(110,5,l),
(60,5,o),
(17,32,o),
(65,174,cs),
(311.5,900,l),
(306.5,900,l),
(48,175.5,ls),
(-2.5,34.5,o),
(-50,5,o),
(-100,5,c),
(-100,0,l)
);
}
);
width = 450;
}
);
partsSettings = (
{
bottomValue = 0;
name = length;
topValue = 100;
},
{
bottomValue = 0;
name = bottomStress;
topValue = 100;
}
);
},
{
export = 0;
glyphname = _part.stemNeue.002;
lastChange = "2023-07-24 03:57:24 +0000";
layers = (
{
layerId = m01;
partSelection = {
length = 2;
bottomStress = 1;
};
shapes = (
{
closed = 1;
nodes = (
(48,175.5,ls),
(-2.5,33,o),
(-50,5,o),
(-100,5,c),
(-100,0,l),
(110,0,l),
(110,5,l),
(60,5,o),
(16.5,32,o),
(65,174,cs),
(304.5,877.5,l),
(242.5,877.5,l),
(242.5,872.5,l),
(248,872.5,ls),
(284.5,872.5,o),
(282,832,o),
(262.5,777.5,cs)
);
}
